# xmcd
#
# Track frame offsets: 
#        150
#        4018
#        9501
#        12996
#        17003
#        19796
#        23476
#        27054
#        33544
#        41283
#        47205
#        57953
#        60208
#        62546
#        65496
#        71933
#        73750
#        75587
#        77425
#        79223
#        81063
#        82931
#        84829
#        87451
#        90042
#        92496
#        95055
#        99298
#        105532
#
# Disc length: 1485 seconds
#
# Revision: 0
# Processed by: cddbd v1.5.2PL0 Copyright (c) Steve Scherf et al.
# Submitted via: ExactAudioCopy v1.1
#
DISCID=4205cb1d
DTITLE=Rittor Music, inc. - Acoustic Guitar Magazine 2006 Spring Issue
DTITLE=Volume 28
DYEAR=2006
DGENRE=Acoustic
TTITLE0=山崎まさよし - 銘器の音～最終回 アーティスト篇 Gibson L-0
TTITLE1=山崎まさよし - 銘器の音～最終回 アーティスト篇 Martin 0-18K
TTITLE2=山崎まさよし - 銘器の音～最終回 アーティスト篇 Martin D-35
TTITLE3=山崎まさよし - 銘器の音～最終回 アーティスト篇 Gibson J-45
TTITLE4=山崎まさよし - 銘器の音～最終回 アーティスト篇 Gibson Southern Jumbo
TTITLE5=押尾コータロー - 銘器の音～最終回 アーティスト篇 Greven D
TTITLE6=押尾コータロー - 銘器の音～最終回 アーティスト篇 Martin D-28 GE
TTITLE7=押尾コータロー - 銘器の音～最終回 アーティスト篇 Kameoka KMD Cutaway
TTITLE8=押尾コータロー - 銘器の音～最終回 アーティスト篇 Somogyi MD Cutaway
TTITLE9=押尾コータロー - 銘器の音～最終回 アーティスト篇 Gibson LG-2 3-4
TTITLE10=岡崎倫典 - フィンガースタイルで弾くギターインストゥルメンタル 第28回「WE WILL ROCK YOU」
TTITLE11=吉川忠英 - 『ソロギターの饗宴』緊急座談会「ロマンス～禁じられた遊び」Ａメロ比較
TTITLE12=吉田次郎 - 『ソロギターの饗宴』緊急座談会「ロマンス～禁じられた遊び」Ａメロ比較
TTITLE13=吉川昌義 - 『ソロギターの饗宴』緊急座談会「ロマンス～禁じられた遊び」Ａメロ比較
TTITLE14=打田十紀夫 - アコースティック・ブルース・ギター講座 第28回オープンGを用いたデルタ・ブルース「Strummin' D
TTITLE14=elta Blues」
TTITLE15=吉田次郎 - イージー・プレイ・イージー 第16回 オブリガートを使いこなしたいあなたへ Ex-1 基本メロディ
TTITLE16=吉田次郎 - イージー・プレイ・イージー 第16回 オブリガートを使いこなしたいあなたへ Ex-2 ２音のみのシンプルなオ
TTITLE16=ブリガート
TTITLE17=吉田次郎 - イージー・プレイ・イージー 第16回 オブリガートを使いこなしたいあなたへ Ex-３ 固定リズムによるオブリ
TTITLE17=ガート
TTITLE18=吉田次郎 - イージー・プレイ・イージー 第16回 オブリガートを使いこなしたいあなたへ Ex-4 ベース・ライン的オブリ
TTITLE18=ガート
TTITLE19=吉田次郎 - イージー・プレイ・イージー 第16回 オブリガートを使いこなしたいあなたへ Ex-5 ミュート・バッキングに
TTITLE19=よるオブリガート
TTITLE20=吉田次郎 - イージー・プレイ・イージー 第16回 オブリガートを使いこなしたいあなたへ 実践オブリガート～エクストラ・ト
TTITLE20=ラック
TTITLE21=吉田次郎 - イージー・プレイ・イージー 第16回 オブリガートを使いこなしたいあなたへ コード・バッキング～エクストラ・
TTITLE21=トラック
TTITLE22=中村善郎 - 形で覚えるボサ・ノヴァ・ギター 第13回 初級コード・ソロ Ex-1 バリエーション１
TTITLE23=中村善郎 - 形で覚えるボサ・ノヴァ・ギター 第13回 初級コード・ソロ Ex-2 バリエーション２
TTITLE24=中村善郎 - 形で覚えるボサ・ノヴァ・ギター 第13回 初級コード・ソロ Ex-3 バリエーション３
TTITLE25=中村善郎 - 形で覚えるボサ・ノヴァ・ギター 第13回 初級コード・ソロ Ex-4 バリエーション４
TTITLE26=中村善郎 - 形で覚えるボサ・ノヴァ・ギター 第13回 初級コード・ソロ 全体をとおして弾く～エクストラ・トラック
TTITLE27=佐藤克彦 - ビンテージ・サウンド・ファイル File No.013 1965製GUILD F-30NT FINGERST
TTITLE27=YLE DEMO
TTITLE28=佐藤克彦 - ビンテージ・サウンド・ファイル File No.013 1965製GUILD F-30NT FLATPICK
TTITLE28=ING DEMO
EXTD=
EXTT0=
EXTT1=
EXTT2=
EXTT3=
EXTT4=
EXTT5=
EXTT6=
EXTT7=
EXTT8=
EXTT9=
EXTT10=
EXTT11=
EXTT12=
EXTT13=
EXTT14=
EXTT15=
EXTT16=
EXTT17=
EXTT18=
EXTT19=
EXTT20=
EXTT21=
EXTT22=
EXTT23=
EXTT24=
EXTT25=
EXTT26=
EXTT27=
EXTT28=
PLAYORDER=
